<svg width="10" height="19" viewBox="0 0 10 19" fill="none" xmlns="http://www.w3.org/2000/svg">
<path d="M0.342262 0.371839C0.450035 0.253971 0.578064 0.160456 0.719017 0.0966497C0.85997 0.0328436 1.01108 0 1.16368 0C1.31629 0 1.4674 0.0328436 1.60835 0.0966497C1.7493 0.160456 1.87733 0.253971 1.9851 0.371839L9.69811 8.78602C9.78415 8.8797 9.85242 8.99096 9.89899 9.11345C9.94557 9.23594 9.96954 9.36725 9.96954 9.49986C9.96954 9.63247 9.94557 9.76378 9.89899 9.88627C9.85242 10.0088 9.78415 10.12 9.69811 10.2137L1.9851 18.6279C1.53031 19.124 0.79706 19.124 0.342262 18.6279C-0.112536 18.1317 -0.112536 17.3318 0.342262 16.8357L7.06214 9.4948L0.332982 2.1539C-0.112534 1.66789 -0.112536 0.857856 0.342262 0.371839Z" fill="black"/>
</svg>
