<svg width="12" height="20" viewBox="0 0 12 20" fill="none" xmlns="http://www.w3.org/2000/svg">
<path d="M0.392996 0.391409C0.516754 0.267338 0.663774 0.168901 0.825634 0.101737C0.987493 0.0345722 1.16101 0 1.33626 0C1.5115 0 1.68502 0.0345722 1.84688 0.101737C2.00874 0.168901 2.15576 0.267338 2.27951 0.391409L11.1366 9.24845C11.2354 9.34705 11.3138 9.46417 11.3672 9.59311C11.4207 9.72205 11.4483 9.86027 11.4483 9.99986C11.4483 10.1394 11.4207 10.2777 11.3672 10.4066C11.3138 10.5355 11.2354 10.6527 11.1366 10.7513L2.27951 19.6083C1.75726 20.1306 0.915253 20.1306 0.392996 19.6083C-0.12926 19.0861 -0.12926 18.244 0.392996 17.7218L8.1096 9.99453L0.38234 2.26727C-0.129258 1.75567 -0.12926 0.903007 0.392996 0.391409Z" fill="black"/>
</svg>
