<svg width="339" height="168" viewBox="0 0 339 168" fill="none" xmlns="http://www.w3.org/2000/svg">
<rect width="339" height="168" rx="10" fill="#C4C4C4" fill-opacity="0.21"/>
<line y1="57.0489" x2="339" y2="57.0489" stroke="black" stroke-opacity="0.3"/>
<line y1="107.906" x2="339" y2="107.906" stroke="black" stroke-opacity="0.3"/>
<g opacity="0.5">
<path d="M308.765 19.934C308.871 19.8179 308.998 19.7258 309.137 19.663C309.276 19.6002 309.426 19.5678 309.576 19.5678C309.727 19.5678 309.876 19.6002 310.015 19.663C310.155 19.7258 310.281 19.8179 310.387 19.934L318.005 28.2207C318.09 28.313 318.157 28.4226 318.203 28.5432C318.249 28.6638 318.273 28.7932 318.273 28.9238C318.273 29.0544 318.249 29.1837 318.203 29.3043C318.157 29.425 318.09 29.5345 318.005 29.6268L310.387 37.9135C309.938 38.4021 309.214 38.4021 308.765 37.9135C308.316 37.4249 308.316 36.6371 308.765 36.1485L315.402 28.9188L308.756 21.6891C308.316 21.2104 308.316 20.4127 308.765 19.934Z" fill="black"/>
</g>
</svg>
